<?xml version="1.0" standalone="no"?>
<!DOCTYPE svg PUBLIC "-//W3C//DTD SVG 20010904//EN"
 "http://www.w3.org/TR/2001/REC-SVG-20010904/DTD/svg10.dtd">
<svg version="1.0" xmlns="http://www.w3.org/2000/svg"
 width="267.000000pt" height="200.000000pt" viewBox="0 0 267.000000 200.000000"
 preserveAspectRatio="xMidYMid meet">
<metadata>
Created by potrace 1.15, written by Peter Selinger 2001-2017
</metadata>
<g transform="translate(0.000000,200.000000) scale(0.100000,-0.100000)"
fill="#000000" stroke="none">
<path d="M4 1989 c-3 -5 1 -9 8 -9 9 0 10 -2 1 -8 -8 -5 -11 -100 -10 -352 1
-339 1 -345 21 -352 20 -6 20 -6 -1 -7 -21 -1 -23 -6 -23 -56 0 -45 3 -55 18
-56 14 0 14 -2 -3 -9 -17 -7 -17 -9 -2 -9 12 -1 17 -9 17 -27 0 -19 4 -25 15
-20 8 3 15 1 15 -4 0 -6 -9 -10 -20 -10 -15 0 -20 7 -20 25 0 14 -3 25 -7 25
-5 0 -8 -20 -8 -45 0 -25 5 -45 10 -45 6 0 3 -5 -5 -10 -13 -8 -13 -10 2 -10
9 0 19 8 21 18 4 13 5 11 6 -5 1 -17 -5 -23 -19 -23 -14 0 -20 -6 -19 -22 0
-22 1 -22 8 -3 l8 20 5 -20 c5 -16 6 -17 7 -2 1 11 9 17 26 17 14 0 25 4 25
10 0 5 -7 7 -15 4 -10 -4 -15 0 -15 15 0 17 6 21 33 20 30 -2 30 -2 5 -6 -16
-2 -28 -8 -28 -13 0 -5 7 -7 15 -4 11 5 15 -1 15 -20 0 -20 5 -26 21 -26 15 0
19 5 15 15 -3 8 -1 15 4 15 6 0 10 -11 10 -24 0 -15 7 -26 18 -29 10 -3 6 -5
-10 -6 -21 -1 -28 -6 -28 -20 0 -11 8 -22 18 -24 10 -3 6 -5 -10 -6 -21 -1
-28 -6 -28 -22 0 -15 5 -19 15 -15 8 3 15 1 15 -4 0 -6 -11 -10 -25 -10 -19 0
-25 -5 -25 -21 0 -15 5 -19 15 -15 10 4 15 -1 15 -14 0 -15 -7 -20 -25 -20
-18 0 -23 -4 -19 -15 5 -11 -1 -15 -20 -15 -21 0 -26 -5 -25 -22 1 -17 2 -19
6 -5 3 10 14 17 29 17 16 0 24 6 25 18 0 14 2 14 9 -3 7 -17 9 -17 9 -2 1 11
9 17 26 17 14 0 25 4 25 10 0 5 -7 7 -15 4 -11 -5 -15 1 -15 19 0 16 -7 27
-17 30 -14 4 -12 5 5 6 17 1 22 -4 22 -24 0 -18 4 -23 15 -19 10 4 15 0 15
-15 0 -16 -7 -21 -27 -22 -17 -1 -21 -3 -10 -6 9 -2 17 -13 17 -24 0 -15 -7
-19 -32 -18 -31 2 -31 2 -6 6 16 2 28 8 28 12 0 4 -14 6 -30 3 -20 -3 -30 -10
-30 -22 0 -13 6 -16 25 -12 21 4 25 1 24 -19 0 -22 -1 -23 -9 -4 -7 17 -9 17
-9 3 -1 -12 -9 -18 -26 -18 -14 0 -25 -4 -25 -10 0 -5 7 -7 15 -4 11 5 15 -1
15 -20 0 -20 5 -26 21 -26 15 0 19 5 15 15 -3 10 1 15 13 15 13 0 20 -9 23
-30 3 -16 1 -30 -4 -30 -4 0 -9 12 -9 28 -1 16 -3 20 -6 10 -3 -11 -15 -18
-31 -19 -17 -1 -21 -3 -9 -6 10 -3 17 -15 18 -31 1 -17 3 -21 6 -9 3 10 14 17
28 17 14 0 25 7 28 18 4 13 5 11 6 -5 1 -18 -4 -23 -25 -23 -19 0 -25 -4 -20
-15 4 -11 -1 -15 -19 -15 -19 0 -25 -5 -25 -21 0 -15 5 -19 15 -15 8 3 15 1
15 -4 0 -6 -9 -10 -20 -10 -15 0 -20 7 -20 25 0 14 -4 25 -10 25 -5 0 -7 -7
-4 -15 5 -11 -1 -15 -20 -15 -18 0 -26 -5 -27 -17 0 -15 -2 -15 -9 2 -8 19 -9
18 -9 -4 -1 -20 3 -23 24 -19 14 3 25 1 25 -3 0 -5 -12 -9 -27 -10 -25 0 -26
-1 -8 -9 15 -6 16 -9 4 -9 -13 -1 -16 -12 -15 -54 1 -43 5 -53 21 -59 19 -6
18 -6 -2 -7 -21 -1 -23 -6 -23 -56 0 -45 3 -55 18 -56 14 0 15 -1 1 -7 -18 -8
-21 -102 -4 -114 6 -5 4 -8 -5 -8 -13 0 -13 -1 0 -10 10 -6 11 -10 3 -10 -7 0
-13 -8 -13 -17 0 -15 2 -16 10 -3 7 10 10 11 10 2 0 -10 113 -12 553 -12 304
0 563 4 577 7 22 6 23 7 4 14 -16 6 -16 8 -2 8 11 1 15 6 12 15 -3 8 2 16 13
19 15 4 15 5 2 6 -11 1 -18 12 -21 31 -4 27 -2 30 24 30 15 0 28 -4 28 -10 0
-5 7 -10 15 -10 8 0 15 -6 15 -12 0 -9 4 -8 10 2 6 10 10 11 10 3 0 -7 9 -13
20 -13 26 0 28 40 3 41 -15 0 -15 2 2 9 l20 9 -20 1 c-11 1 -14 4 -7 7 6 2 12
11 12 18 0 7 8 16 18 18 16 4 16 5 0 6 -12 1 -18 9 -18 27 0 19 -4 25 -15 20
-10 -3 -15 1 -16 12 0 14 -2 14 -9 -3 -7 -17 -9 -17 -9 -3 -1 11 -6 15 -16 12
-8 -4 -15 -1 -15 5 0 6 3 10 8 10 4 -1 16 0 27 1 15 2 12 4 -10 10 l-30 8 29
1 c21 1 27 5 22 16 -3 10 1 15 12 16 14 0 14 2 -3 9 -17 7 -17 9 -3 9 11 1 15
6 12 16 -4 10 0 15 12 16 18 0 17 1 -1 9 -18 8 -17 9 7 9 16 1 28 8 31 18 4
14 5 14 6 3 2 -22 78 -14 84 8 4 14 5 14 6 -2 1 -11 6 -16 15 -13 9 4 17 -1
19 -11 3 -10 5 -5 6 11 0 15 5 27 10 27 5 0 12 8 14 17 4 17 5 17 6 1 1 -11 6
-15 16 -12 8 4 15 1 15 -5 0 -8 4 -8 14 1 12 11 10 14 -13 19 l-26 7 28 1 c18
1 27 7 28 19 1 9 5 4 9 -13 l8 -30 1 29 c1 26 3 28 36 24 24 -3 35 0 35 9 0 7
-7 13 -15 13 -8 0 -15 6 -15 13 0 8 -4 7 -10 -3 -9 -13 -10 -13 -11 0 0 10 -3
8 -9 -5 -5 -11 -9 -14 -9 -7 -1 7 -17 12 -43 13 -33 0 -38 2 -23 9 17 7 15 9
-12 9 -25 1 -33 -3 -34 -16 0 -15 -2 -15 -9 2 -7 17 -9 17 -9 3 -1 -19 -41
-26 -41 -8 0 6 -11 10 -25 10 -14 0 -25 6 -25 13 0 8 -4 7 -10 -3 -6 -10 -10
-11 -10 -2 0 6 -8 12 -17 13 -15 0 -15 2 2 9 19 8 19 9 -2 9 -15 1 -23 -5 -24
-16 0 -15 -2 -15 -9 2 -7 17 -9 17 -9 3 -1 -12 -9 -18 -23 -17 -17 1 -18 3 -6
6 10 2 15 10 11 19 -4 10 2 14 21 14 19 0 26 5 26 20 0 13 -5 17 -14 14 -8 -3
-16 2 -19 13 -4 15 -5 14 -6 -4 -1 -13 6 -23 17 -26 13 -4 11 -5 -5 -6 -19 -1
-23 4 -23 29 0 27 3 30 33 29 27 0 29 -2 12 -9 -16 -7 -17 -9 -3 -9 10 -1 19
-12 21 -29 3 -15 4 -3 4 26 -2 55 9 71 16 25 l4 -28 2 28 c0 15 6 27 11 27 6
0 10 7 10 15 0 8 3 14 8 14 23 -4 42 3 40 14 -2 6 3 11 10 9 6 -1 12 3 12 9 0
6 -7 9 -15 5 -10 -3 -15 1 -16 12 0 14 -2 14 -9 -3 -6 -15 -10 -4 -15 43 -6
47 -11 62 -24 63 -12 0 -11 2 4 9 l20 9 -20 1 c-19 1 -19 1 -2 11 9 6 15 14
12 20 -4 5 0 9 8 9 10 0 13 8 9 25 -3 17 0 25 9 25 9 0 10 3 3 8 -19 13 -23
61 -5 65 13 4 13 5 -1 6 -11 1 -18 9 -18 22 0 11 5 17 10 14 6 -4 10 8 10 29
0 22 -5 36 -12 36 -9 0 -9 3 -3 8 6 4 10 13 9 20 -1 6 -2 23 -3 37 0 15 -7 25
-16 25 -8 0 -14 3 -14 8 4 21 -2 43 -10 38 -5 -3 -12 6 -16 22 -7 25 -8 25
-15 7 -8 -19 -9 -19 -9 3 -1 12 5 23 12 23 6 1 -1 5 -18 9 l-30 8 28 1 c15 0
27 5 27 10 0 4 -11 6 -25 3 -19 -3 -25 0 -25 12 0 11 -4 14 -12 10 -9 -5 -9
-2 1 9 12 15 11 17 -3 17 -9 0 -16 6 -17 13 0 6 -4 3 -9 -8 -8 -18 -9 -19 -9
-1 -1 12 -6 16 -16 12 -10 -3 -15 1 -16 12 0 9 -3 12 -5 6 -6 -15 -64 -5 -64
12 0 8 -6 11 -15 8 -10 -4 -15 0 -15 15 0 16 6 21 28 22 23 0 24 2 8 8 -18 7
-18 8 -2 14 9 4 14 11 11 17 -3 5 2 10 12 11 16 0 16 1 -1 8 -19 7 -19 8 2 13
16 5 22 2 23 -10 0 -14 2 -13 9 3 l9 20 1 -20 c2 -11 2 -23 1 -27 0 -5 8 -8
19 -8 11 0 20 7 20 15 0 8 6 15 13 16 6 0 3 4 -8 9 -17 7 -17 9 -2 9 9 1 17 5
17 11 0 5 -7 7 -15 4 -8 -4 -15 -1 -15 5 0 6 9 11 20 11 11 0 20 -7 20 -15 0
-8 6 -12 13 -9 8 2 13 -4 14 -16 2 -22 25 -50 42 -50 6 0 11 -6 11 -12 0 -9 4
-8 10 2 9 13 10 13 10 0 0 -12 2 -12 9 -1 6 9 11 10 15 2 4 -6 12 -9 17 -6 5
4 9 -2 9 -12 0 -15 2 -16 10 -3 8 12 11 11 16 -8 6 -21 7 -21 20 -5 7 10 14
27 14 38 0 17 2 17 10 5 8 -12 10 -12 10 5 0 17 2 18 11 5 8 -11 12 -12 16 -2
6 16 30 16 36 0 3 -7 6 -1 6 15 1 15 6 27 11 27 6 0 10 10 10 23 0 18 2 19 10
7 7 -11 10 -3 11 30 0 34 2 40 9 25 7 -17 9 -17 9 -2 1 9 6 17 11 17 6 0 10
12 11 28 0 24 1 25 9 7 7 -17 9 -17 9 -2 1 11 9 17 24 16 15 -1 17 -3 6 -6
-12 -3 -15 -11 -11 -25 5 -21 6 -21 13 -2 7 18 8 18 8 -3 1 -12 -5 -24 -11
-26 -7 -3 1 -6 17 -7 l30 -2 -30 -8 c-16 -4 -22 -8 -12 -9 11 -1 17 -9 17 -26
0 -14 6 -25 13 -25 8 0 7 -4 -3 -10 -12 -8 -12 -10 5 -10 12 0 16 -3 9 -8 -9
-5 -8 -11 2 -20 8 -7 14 -8 14 -2 0 5 11 10 24 10 15 0 26 7 29 18 3 10 5 6 6
-10 1 -18 7 -28 16 -28 8 0 15 -4 15 -10 0 -5 14 -10 31 -10 24 0 30 4 25 15
-3 8 -1 15 4 15 6 0 10 -7 10 -16 0 -8 4 -13 9 -10 5 4 12 0 14 -6 4 -10 6
-10 6 0 1 14 41 17 41 2 0 -5 7 -10 15 -10 8 0 14 -3 14 -7 -4 -23 2 -43 11
-38 6 3 10 0 11 -7 0 -7 2 -22 4 -33 3 -11 7 -45 10 -75 4 -30 9 -68 12 -85 3
-16 6 -36 6 -42 0 -7 5 -13 11 -13 6 0 4 -5 -4 -10 -8 -5 -10 -10 -4 -10 13 0
8 -94 -8 -140 -6 -17 -28 -106 -34 -135 -6 -31 -15 -115 -18 -170 -2 -27 -5
-50 -6 -50 -2 0 -6 -26 -16 -119 -6 -55 -5 -68 6 -61 7 4 16 2 21 -6 7 -12 9
-11 9 1 0 13 1 13 10 0 6 -10 10 -11 10 -2 0 6 10 12 23 11 21 0 21 -1 2 -9
-19 -8 -19 -9 3 -9 14 -1 22 5 23 17 0 14 2 14 9 -3 7 -17 9 -17 9 -2 1 9 8
17 17 17 8 0 13 4 10 9 -3 5 1 12 10 15 8 3 12 10 9 16 -3 5 1 10 9 10 9 0 16
6 16 13 0 7 9 19 20 27 11 8 20 19 20 25 0 6 9 17 20 25 11 8 20 26 20 40 0
20 2 22 10 10 8 -12 10 -9 10 13 0 15 6 27 13 27 8 0 7 4 -3 10 -10 6 -11 10
-2 10 6 0 12 7 12 15 0 8 6 15 13 15 8 0 7 4 -3 10 -13 9 -13 10 0 11 10 0 8
3 -5 9 -18 8 -19 9 -1 9 11 1 16 6 13 15 -4 9 1 17 11 19 14 4 13 5 -3 6 -17
1 -18 3 -5 11 13 9 13 11 0 20 -13 9 -13 10 0 10 13 0 13 1 0 10 -10 6 -11 10
-3 10 10 0 11 18 7 73 -3 39 -7 77 -9 84 -2 6 4 14 13 16 16 4 15 5 0 6 -13 1
-18 9 -17 34 0 21 3 26 7 16 5 -12 13 -14 27 -8 17 6 17 8 3 8 -14 1 -18 9
-17 34 0 27 2 29 9 12 8 -19 9 -19 9 3 1 14 -5 22 -16 23 -15 0 -15 2 2 9 17
7 17 9 3 9 -13 1 -18 10 -19 29 0 23 -2 24 -8 8 -7 -19 -8 -19 -13 2 -4 14 -1
22 11 25 14 4 14 5 -1 6 -14 1 -18 9 -17 34 2 30 2 30 6 5 2 -16 8 -28 12 -28
4 0 6 14 3 30 -3 24 -9 30 -31 31 l-26 1 25 7 c28 7 37 41 11 41 -14 0 -14 2
-1 10 8 5 10 10 4 10 -7 0 -15 15 -18 34 -4 19 -12 37 -19 39 -9 4 -8 6 1 6
10 1 10 5 -2 17 -9 8 -16 26 -16 40 0 13 -6 24 -12 24 -9 0 -8 4 2 10 13 8 12
10 -4 10 -16 0 -17 2 -5 17 10 11 10 14 2 9 -8 -4 -13 -1 -13 8 0 9 -6 16 -12
16 -9 0 -8 4 2 10 12 8 12 10 -5 11 -11 0 -14 3 -7 6 6 2 12 9 12 14 0 6 -4 7
-10 4 -6 -3 -11 5 -11 19 -1 14 -3 31 -4 36 -1 6 -3 18 -4 28 -2 15 -3 14 -11
-3 -8 -18 -9 -17 -11 8 -1 15 -3 32 -4 37 -1 6 -3 22 -4 38 -2 24 -3 25 -11 7
-8 -19 -9 -19 -9 2 -1 12 5 24 11 26 8 3 6 6 -4 6 -11 1 -18 9 -18 21 l0 21
-845 -2 c-624 -1 -845 -4 -845 -13 0 -7 -4 -6 -9 2 -10 16 -221 13 -233 -3 -5
-6 -8 -5 -8 3 0 9 -21 12 -80 11 -44 -1 -83 -6 -86 -10z m1281 -749 c-17 -7
-17 -9 -2 -9 10 -1 17 -9 17 -22 0 -11 -4 -17 -10 -14 -6 4 -10 -8 -11 -27 0
-27 -2 -30 -9 -13 -7 17 -9 17 -9 3 -1 -12 -10 -18 -28 -19 l-28 -1 30 -8 c17
-4 24 -8 18 -9 -7 0 -13 -12 -13 -26 0 -14 -4 -25 -10 -25 -17 0 -11 -38 8
-43 10 -3 6 -5 -10 -6 -22 -1 -28 -6 -27 -23 1 -17 2 -19 6 -5 3 10 13 17 26
16 15 -1 17 -3 6 -6 -11 -3 -15 -12 -11 -28 3 -19 0 -25 -14 -26 -16 -1 -16
-2 -3 -6 19 -5 32 -63 15 -63 -7 0 -10 -20 -8 -54 3 -41 8 -56 20 -59 10 -3 4
-6 -13 -7 l-30 -2 30 -8 30 -8 -29 -1 c-21 -1 -27 -5 -22 -16 3 -10 -1 -15
-12 -16 -14 0 -14 -2 2 -8 19 -7 19 -8 -2 -13 -14 -4 -22 -1 -25 11 -3 11 -5
9 -6 -6 -1 -13 6 -23 17 -26 13 -4 11 -5 -5 -6 -18 -1 -23 5 -24 27 -1 16 -3
20 -6 10 -3 -11 -14 -18 -29 -18 -16 0 -24 -6 -25 -17 0 -15 -2 -15 -9 2 l-9
20 -1 -20 c-1 -11 -4 -14 -7 -7 -2 6 -11 12 -19 12 -8 0 -14 10 -14 25 0 17
-6 25 -17 26 -10 1 -4 5 12 9 l30 8 -30 2 c-16 1 -24 4 -17 7 6 2 12 11 12 19
0 8 8 15 18 15 16 1 16 2 0 6 -10 2 -18 9 -18 14 0 5 -12 10 -27 10 l-28 2 28
4 c15 2 27 8 27 13 0 5 -7 7 -15 4 -11 -5 -15 1 -15 21 0 24 -3 27 -25 23 -14
-3 -25 -1 -25 3 0 5 12 10 28 10 16 1 20 3 10 6 -11 3 -18 14 -18 29 0 16 -6
24 -17 25 -15 0 -15 2 2 9 19 8 19 9 -2 9 -12 1 -23 -6 -26 -16 -4 -14 -5 -12
-6 5 0 12 4 22 9 22 6 0 9 10 9 23 -1 16 -2 18 -6 5 -3 -11 -13 -18 -26 -17
-15 1 -17 3 -6 6 12 3 15 11 11 25 -5 21 -6 21 -13 2 -7 -18 -8 -17 -8 4 -1
12 5 23 12 23 6 1 -1 5 -18 9 l-30 8 28 1 c15 0 27 5 27 11 0 5 -7 7 -15 4
-11 -5 -15 0 -14 17 1 16 3 19 6 7 2 -10 10 -15 19 -11 10 4 14 -3 14 -22 0
-24 3 -27 25 -23 18 4 25 1 26 -11 0 -12 2 -11 9 4 7 17 9 17 9 3 1 -10 6 -18
12 -18 6 0 9 7 5 15 -4 11 1 15 17 14 12 0 16 -3 10 -6 -7 -2 -12 -14 -12 -26
1 -17 2 -18 6 -4 3 10 15 17 31 18 17 1 21 3 10 6 -11 3 -18 13 -17 26 1 17 2
18 6 5 5 -20 12 -22 33 -8 12 8 12 10 -5 11 l-20 0 20 9 c17 7 17 9 3 9 -12 1
-18 9 -17 24 0 21 1 21 9 2 7 -17 9 -17 9 -2 1 11 9 17 26 17 17 0 25 6 26 18
0 14 2 14 9 -3 7 -17 9 -17 9 -2 1 11 9 17 24 18 38 1 56 7 72 22 18 19 20 43
3 50 -7 3 3 5 22 6 28 0 31 -2 15 -9z"/>
<path d="M1891 1478 c0 -10 -4 -17 -8 -16 -18 4 -153 -15 -153 -22 0 -4 -11
-6 -25 -5 -14 2 -25 -1 -25 -6 0 -5 -3 -8 -7 -8 -32 5 -63 -3 -63 -16 0 -8 -4
-15 -10 -15 -5 0 -10 -10 -10 -21 0 -17 5 -20 25 -17 14 3 25 1 25 -6 0 -8 2
-8 8 0 4 7 30 15 57 18 28 4 64 9 80 13 17 3 36 6 43 6 6 0 12 5 12 11 0 6 5
4 10 -4 8 -12 10 -12 10 -1 0 9 8 12 25 9 14 -3 25 -1 25 6 0 8 2 8 8 -1 4 -6
16 -13 27 -15 24 -4 36 -15 53 -48 11 -23 12 -21 7 20 -3 24 -12 48 -20 52 -7
5 -20 14 -27 21 -7 7 -22 12 -33 12 -13 0 -22 9 -26 25 -4 15 -7 18 -8 8z"/>
<path d="M1699 1330 c-25 -3 -52 -11 -60 -18 -7 -7 -25 -21 -38 -32 -23 -19
-23 -20 -4 -20 12 0 23 7 27 15 9 25 21 17 23 -17 1 -18 9 -36 18 -40 8 -5 15
-16 15 -23 0 -20 21 -21 125 -9 45 5 55 9 40 15 l-20 8 20 1 c11 2 23 2 28 1
4 0 7 3 7 9 0 16 -37 12 -54 -6 -12 -12 -16 -12 -16 -2 0 10 -2 10 -9 -1 -5
-8 -31 -15 -62 -17 -30 -2 -47 -1 -39 2 58 22 77 45 71 87 -1 9 3 17 8 17 6 0
11 -4 11 -10 0 -5 6 -10 13 -10 7 0 19 -9 27 -20 17 -24 70 -28 70 -5 0 8 -7
15 -15 15 -9 0 -16 10 -16 28 -2 23 -2 23 -6 5 -4 -19 -7 -21 -24 -10 -10 6
-19 21 -20 32 0 20 0 20 -9 0 -6 -13 -9 -15 -9 -5 -1 16 -26 19 -102 10z"/>
<path d="M1881 368 c0 -10 -5 -18 -11 -18 -5 0 -10 -10 -9 -22 0 -22 1 -22 9
-3 5 11 9 14 9 8 1 -7 8 -13 16 -13 8 0 15 -4 15 -8 0 -5 15 -17 33 -26 55
-30 71 -62 74 -142 1 -38 -2 -87 -7 -107 l-8 -37 309 0 c170 0 309 2 309 5 0
3 -18 13 -40 22 -22 10 -40 21 -40 25 0 5 -7 8 -15 8 -8 0 -15 5 -15 10 0 6
-7 10 -16 10 -8 0 -12 5 -9 10 4 6 -6 10 -22 11 -15 0 -22 3 -15 6 14 6 17 43
2 43 -5 0 -7 -7 -4 -15 5 -12 -2 -15 -27 -14 -19 0 -28 3 -21 6 6 2 11 14 11
26 -1 17 -2 18 -6 4 -3 -10 -13 -17 -26 -16 -15 1 -17 3 -6 6 12 3 15 11 11
25 -5 21 -6 21 -13 2 -6 -14 -8 -15 -8 -3 -1 12 -8 15 -26 11 -22 -4 -25 -1
-25 23 0 19 -4 26 -14 22 -9 -4 -17 1 -19 11 -3 12 -5 9 -6 -7 -1 -17 3 -22
14 -17 8 3 15 1 15 -4 0 -6 -9 -10 -20 -10 -15 0 -20 7 -21 28 -1 16 -3 20 -6
10 -3 -11 -13 -18 -26 -17 -15 1 -17 3 -6 6 12 3 15 11 11 25 -5 21 -6 21 -13
2 -6 -14 -8 -15 -8 -3 -1 12 -8 15 -26 11 -22 -4 -25 -1 -25 22 0 14 -4 26
-10 26 -5 0 -7 -7 -4 -15 5 -11 -1 -15 -20 -15 -18 0 -26 -5 -27 -17 0 -15 -2
-15 -9 2 l-9 20 -1 -20 -1 -20 -8 20 c-6 14 -4 22 8 27 13 5 11 7 -6 7 -12 1
-23 -6 -26 -16 -3 -11 -5 -7 -6 10 -1 20 -6 27 -21 27 -11 0 -20 -4 -20 -10 0
-5 7 -7 15 -4 10 4 15 0 15 -15 0 -15 -6 -21 -22 -20 -22 0 -22 1 -3 9 17 7
17 9 3 9 -12 1 -18 10 -19 29 l-1 27 -8 -30 c-4 -16 -8 -24 -9 -17 0 6 -12 12
-26 12 -14 0 -25 5 -25 10 0 6 -8 10 -17 11 -15 0 -15 2 2 9 16 7 17 9 3 9 -9
1 -19 9 -21 19 -4 16 -5 16 -6 0z"/>
</g>
</svg>
